<?xml version="1.0" encoding="UTF-8" standalone="no"?>
<svg
   sodipodi:docname="graphics.svg"
   id="svg8"
   version="1.1"
   viewBox="0 0 211.66666 119.0625"
   height="450"
   width="800"
   inkscape:version="1.2 (dc2aedaf03, 2022-05-15)"
   xmlns:inkscape="http://www.inkscape.org/namespaces/inkscape"
   xmlns:sodipodi="http://sodipodi.sourceforge.net/DTD/sodipodi-0.dtd"
   xmlns="http://www.w3.org/2000/svg"
   xmlns:svg="http://www.w3.org/2000/svg"
   xmlns:rdf="http://www.w3.org/1999/02/22-rdf-syntax-ns#"
   xmlns:cc="http://creativecommons.org/ns#"
   xmlns:dc="http://purl.org/dc/elements/1.1/">
  <defs
     id="defs2">
    <inkscape:path-effect
       effect="fillet_chamfer"
       id="path-effect5494"
       is_visible="true"
       lpeversion="1"
       nodesatellites_param="F,0,0,1,0,0,0,1 @ F,0,1,1,0,3,0,1 @ F,0,1,1,0,3,0,1 @ F,0,1,1,0,3,0,1 @ F,0,1,1,0,3,0,1 @ F,0,0,1,0,0,0,1 @ F,0,0,1,0,0,0,1 @ F,0,0,1,0,0,0,1 | F,0,0,1,0,0,0,1 @ F,0,0,1,0,0,0,1 @ F,0,0,1,0,0,0,1 @ F,0,0,1,0,0,0,1 @ F,0,0,1,0,0,0,1 @ F,0,0,1,0,0,0,1 @ F,0,0,1,0,0,0,1 @ F,0,0,1,0,0,0,1"
       unit="px"
       method="auto"
       mode="F"
       radius="3"
       chamfer_steps="1"
       flexible="false"
       use_knot_distance="true"
       apply_no_radius="true"
       apply_with_radius="true"
       only_selected="true"
       hide_knots="false" />
    <inkscape:path-effect
       effect="fillet_chamfer"
       id="path-effect5476"
       is_visible="true"
       lpeversion="1"
       nodesatellites_param="F,0,0,1,0,3,0,1 @ F,0,0,1,0,3,0,1 @ F,0,0,1,0,3,0,1 @ F,0,0,1,0,3,0,1 @ F,0,0,1,0,3,0,1 @ F,0,0,1,0,3,0,1 @ F,0,0,1,0,3,0,1"
       unit="px"
       method="auto"
       mode="F"
       radius="3"
       chamfer_steps="1"
       flexible="false"
       use_knot_distance="true"
       apply_no_radius="true"
       apply_with_radius="true"
       only_selected="false"
       hide_knots="false" />
    <clipPath
       clipPathUnits="userSpaceOnUse"
       id="clipEmfPath1">
      <path
         d="M 67.274331,67.274331 H 622.53858 V 271.10551 H 67.274331 Z"
         id="path1325" />
    </clipPath>
    <pattern
       id="EMFhbasepattern"
       patternUnits="userSpaceOnUse"
       width="6"
       height="6"
       x="0"
       y="0" />
    <clipPath
       clipPathUnits="userSpaceOnUse"
       id="clipEmfPath1-8">
      <path
         d="M 4.016378,5.0204724 L 61.249764,5.0204724 L 61.249764,61.249764 L 4.016378,61.249764 z"
         id="path5457" />
    </clipPath>
    <pattern
       id="EMFhbasepattern-4"
       patternUnits="userSpaceOnUse"
       width="6"
       height="6"
       x="0"
       y="0" />
  </defs>
  <sodipodi:namedview
     id="base"
     pagecolor="#ffffff"
     bordercolor="#666666"
     borderopacity="1.0"
     inkscape:pageopacity="0.0"
     inkscape:pageshadow="2"
     inkscape:zoom="1.4"
     inkscape:cx="28.571429"
     inkscape:cy="221.78571"
     inkscape:document-units="px"
     inkscape:current-layer="layer1"
     inkscape:document-rotation="0"
     showgrid="true"
     inkscape:window-width="1826"
     inkscape:window-height="1040"
     inkscape:window-x="78"
     inkscape:window-y="0"
     inkscape:window-maximized="0"
     units="px"
     inkscape:showpageshadow="false"
     inkscape:pagecheckerboard="0"
     inkscape:deskcolor="#d1d1d1">
    <inkscape:grid
       type="xygrid"
       id="grid1574"
       spacingx="2.6458333"
       spacingy="2.6458333"
       color="#96988b"
       opacity="0.1254902"
       empcolor="#7d7d7b"
       empopacity="0.52156863" />
  </sodipodi:namedview>
  <metadata
     id="metadata5">
    <rdf:RDF>
      <cc:Work
         rdf:about="">
        <dc:format>image/svg+xml</dc:format>
        <dc:type
           rdf:resource="http://purl.org/dc/dcmitype/StillImage" />
      </cc:Work>
    </rdf:RDF>
  </metadata>
  <g
     inkscape:label="Слой 1"
     inkscape:groupmode="layer"
     id="layer1">
    <path
       id="path247"
       style="fill:#6243c3;fill-opacity:1;stroke:none;stroke-width:0.264583px;stroke-linecap:butt;stroke-linejoin:miter;stroke-opacity:1"
       d="m 0,0 v 49.916666 a 3,3 135 0 1 -3,3 h -17.8125 a 3,3 135 0 0 -3,3 v 17.8125 a 3,3 45 0 0 3,3 H -3 a 3,3 45 0 1 3,3 V 124.35416 H 89.958332 V 0 Z M 7.9374999,44.979166 H 79.374999 c 2.93158,0 5.291666,2.360086 5.291666,5.291667 v 44.979165 c 0,2.931581 -2.360086,5.291672 -5.291666,5.291672 H 7.9374999 c -2.9315801,0 -5.2916666,-2.360091 -5.2916666,-5.291672 V 50.270833 c 0,-2.931581 2.3600865,-5.291667 5.2916666,-5.291667 z"
       sodipodi:nodetypes="cccccccccsssssssss"
       inkscape:path-effect="#path-effect5494"
       inkscape:original-d="m 0,0 v 52.916666 h -23.8125 v 23.8125 H 0 V 124.35416 H 89.958332 V 0 Z M 7.9374999,44.979166 H 79.374999 c 2.93158,0 5.291666,2.360086 5.291666,5.291667 v 44.979165 c 0,2.931581 -2.360086,5.291672 -5.291666,5.291672 H 7.9374999 c -2.9315801,0 -5.2916666,-2.360091 -5.2916666,-5.291672 V 50.270833 c 0,-2.931581 2.3600865,-5.291667 5.2916666,-5.291667 z" />
    <path
       style="fill:#5b9bd5;fill-opacity:1;fill-rule:evenodd;stroke:none;stroke-width:0.793749"
       d="m 140.60718,92.656298 -17.27636,17.276362 a 2.9999999,2.9999999 180 0 1 -4.24264,0 L 101.81182,92.656298 a 1.2426406,1.2426406 112.5 0 1 0.87868,-2.12132 h 4.7595 a 3,3 135 0 0 3,-3 v -15.519 a 3,3 135 0 1 3,-3 h 15.519 a 3,3 45 0 1 3,3 v 15.519 a 3,3 45 0 0 3,3 h 4.7595 a 1.2426408,1.2426408 67.499999 0 1 0.87868,2.12132 z"
       id="path5463"
       inkscape:path-effect="#path-effect5476"
       inkscape:original-d="M 142.7285,90.534978 121.2095,112.05398 99.690497,90.534978 H 110.45 v -21.519 h 21.519 v 21.519 z" />
    <path
       style="fill:none;stroke:none;stroke-width:1.00409px;stroke-linecap:butt;stroke-linejoin:miter;stroke-miterlimit:8;stroke-dasharray:none;stroke-opacity:1"
       clip-path="url(#clipEmfPath1-8)"
       d="M 59.241575,32.131024 32.131024,59.241575 5.0204724,32.131024 H 18.575748 V 5.0204724 H 45.686299 V 32.131024 Z"
       id="path5465"
       transform="matrix(0.79374999,0,0,0.79374999,95.705507,65.030979)" />
  </g>
</svg>
